<svg xmlns="http://www.w3.org/2000/svg" style="position:absolute;width:0;height:0;overflow:hidden;" aria-hidden="true">
  <defs>
    <symbol id="ico-compact" viewBox="0 0 24 24" fill="none" stroke="currentColor" stroke-width="2" stroke-linecap="round" stroke-linejoin="round">
      <rect x="4" y="4" width="16" height="16" rx="2"/>
      <path d="M4 10h16M9 10v10"/>
    </symbol>
    <symbol id="ico-expand-arrows" viewBox="0 0 24 24" fill="none" stroke="currentColor" stroke-width="2" stroke-linecap="round" stroke-linejoin="round">
      <path d="M4 14v6h6M20 10V4h-6M14 10l7-7M10 14l-7 7"/>
    </symbol>
    <symbol id="ico-bounce" viewBox="0 0 24 24" fill="none" stroke="currentColor" stroke-width="2" stroke-linecap="round" stroke-linejoin="round">
      <path d="M3 12 L6 12 L8 6 L10 18 L12 8 L14 16 L16 10 L18 12 L21 12"/>
    </symbol>
    <symbol id="ico-logo" viewBox="0 0 24 24" fill="none" stroke="currentColor" stroke-width="2" stroke-linecap="round">
      <circle cx="6" cy="12" r="2.5" fill="currentColor"/>
      <path d="M10 12 Q14 4 18 12 T22 12" opacity="0.7"/>
    </symbol>
    <symbol id="ico-accessibility" viewBox="0 0 24 24" fill="none" stroke="currentColor" stroke-width="2" stroke-linecap="round" stroke-linejoin="round">
      <circle cx="12" cy="4" r="1.8" fill="currentColor"/>
      <path d="M6 8 L12 10 L18 8"/>
      <path d="M12 10 L12 15"/>
      <path d="M12 15 L9 21 M12 15 L15 21"/>
    </symbol>
    <symbol id="ico-music" viewBox="0 0 24 24" fill="none" stroke="currentColor" stroke-width="2" stroke-linecap="round" stroke-linejoin="round">
      <path d="M9 18V5l10-2v13"/>
      <circle cx="6" cy="18" r="3" fill="currentColor"/>
      <circle cx="16" cy="16" r="3" fill="currentColor"/>
    </symbol>
    <symbol id="ico-gear" viewBox="0 0 24 24" fill="none" stroke="currentColor" stroke-width="1.8" stroke-linecap="round" stroke-linejoin="round">
      <path d="M10.325 4.317c.426-1.756 2.924-1.756 3.35 0a1.724 1.724 0 0 0 2.573 1.066c1.543-.94 3.31.826 2.37 2.37a1.724 1.724 0 0 0 1.065 2.572c1.756.426 1.756 2.924 0 3.35a1.724 1.724 0 0 0-1.066 2.573c.94 1.543-.826 3.31-2.37 2.37a1.724 1.724 0 0 0-2.572 1.065c-.426 1.756-2.924 1.756-3.35 0a1.724 1.724 0 0 0-2.573-1.066c-1.543.94-3.31-.826-2.37-2.37a1.724 1.724 0 0 0-1.065-2.572c-1.756-.426-1.756-2.924 0-3.35a1.724 1.724 0 0 0 1.066-2.573c-.94-1.543.826-3.31 2.37-2.37.996.608 2.296.07 2.572-1.065z"/>
      <circle cx="12" cy="12" r="3"/>
    </symbol>
    <symbol id="ico-finder" viewBox="0 0 24 24" fill="none" stroke="currentColor" stroke-width="2" stroke-linecap="round" stroke-linejoin="round">
      <rect x="3" y="3" width="18" height="18" rx="4"/>
      <circle cx="9" cy="10" r="1" fill="currentColor" stroke="none"/>
      <circle cx="15" cy="10" r="1" fill="currentColor" stroke="none"/>
      <path d="M8 16 Q12 19 16 16"/>
    </symbol>
    <symbol id="ico-check" viewBox="0 0 24 24" fill="none" stroke="currentColor" stroke-width="2.5" stroke-linecap="round" stroke-linejoin="round">
      <path d="M5 12 L10 17 L19 7"/>
    </symbol>
    <symbol id="ico-check-circle" viewBox="0 0 24 24" fill="none" stroke="currentColor" stroke-width="2" stroke-linecap="round" stroke-linejoin="round">
      <circle cx="12" cy="12" r="10"/>
      <path d="M7 12 L11 16 L17 9"/>
    </symbol>
    <symbol id="ico-close" viewBox="0 0 24 24" fill="none" stroke="currentColor" stroke-width="2" stroke-linecap="round">
      <path d="M6 6 L18 18 M18 6 L6 18"/>
    </symbol>
    <symbol id="ico-warn" viewBox="0 0 24 24" fill="none" stroke="currentColor" stroke-width="2" stroke-linecap="round" stroke-linejoin="round">
      <path d="M12 3 L22 20 L2 20 Z"/>
      <path d="M12 10 V14"/>
      <circle cx="12" cy="17" r="0.8" fill="currentColor" stroke="none"/>
    </symbol>
    <symbol id="ico-bell" viewBox="0 0 24 24" fill="none" stroke="currentColor" stroke-width="2" stroke-linecap="round" stroke-linejoin="round">
      <path d="M6 8a6 6 0 0 1 12 0c0 7 3 9 3 9H3s3-2 3-9"/>
      <path d="M10 21 Q12 23 14 21"/>
    </symbol>
    <symbol id="ico-bell-off" viewBox="0 0 24 24" fill="none" stroke="currentColor" stroke-width="2" stroke-linecap="round" stroke-linejoin="round">
      <path d="M6 8a6 6 0 0 1 10.5-4"/>
      <path d="M18 8c0 7 3 9 3 9H6"/>
      <path d="M3 3 L21 21"/>
      <path d="M10 21 Q12 23 14 21"/>
    </symbol>
    <symbol id="ico-save" viewBox="0 0 24 24" fill="none" stroke="currentColor" stroke-width="2" stroke-linecap="round" stroke-linejoin="round">
      <path d="M19 21 H5 a2 2 0 0 1 -2 -2 V5 a2 2 0 0 1 2 -2 h11 l5 5 v11 a2 2 0 0 1 -2 2 z"/>
      <path d="M8 3 V8 H16 V3"/>
      <path d="M8 13 H16 V21 H8 z"/>
    </symbol>
    <symbol id="ico-pin" viewBox="0 0 24 24" fill="none" stroke="currentColor" stroke-width="2" stroke-linecap="round" stroke-linejoin="round">
      <path d="M12 2 L12 9 M8 2 H16 M9 9 L7 15 H17 L15 9 M12 15 V22"/>
    </symbol>
    <symbol id="ico-cube" viewBox="0 0 24 24" fill="none" stroke="currentColor" stroke-width="2" stroke-linecap="round" stroke-linejoin="round">
      <path d="M12 2 L21 7 V17 L12 22 L3 17 V7 Z"/>
      <path d="M3 7 L12 12 L21 7"/>
      <path d="M12 12 V22"/>
    </symbol>
    <symbol id="ico-dice" viewBox="0 0 24 24" fill="none" stroke="currentColor" stroke-width="2" stroke-linecap="round" stroke-linejoin="round">
      <rect x="3" y="3" width="18" height="18" rx="3"/>
      <circle cx="8" cy="8" r="1.2" fill="currentColor" stroke="none"/>
      <circle cx="16" cy="16" r="1.2" fill="currentColor" stroke="none"/>
      <circle cx="16" cy="8" r="1.2" fill="currentColor" stroke="none"/>
      <circle cx="8" cy="16" r="1.2" fill="currentColor" stroke="none"/>
    </symbol>
    <symbol id="ico-sliders" viewBox="0 0 24 24" fill="none" stroke="currentColor" stroke-width="2" stroke-linecap="round" stroke-linejoin="round">
      <path d="M4 6 H20 M4 12 H20 M4 18 H20"/>
      <circle cx="9"  cy="6"  r="2" fill="#0c0c10"/>
      <circle cx="15" cy="12" r="2" fill="#0c0c10"/>
      <circle cx="8"  cy="18" r="2" fill="#0c0c10"/>
    </symbol>
    <symbol id="ico-fader" viewBox="0 0 24 24" fill="none" stroke="currentColor" stroke-width="2" stroke-linecap="round" stroke-linejoin="round">
      <path d="M7 3 V21 M13 3 V21 M19 3 V21"/>
      <rect x="4"  y="7"  width="6" height="4" rx="1" fill="#0c0c10"/>
      <rect x="10" y="13" width="6" height="4" rx="1" fill="#0c0c10"/>
      <rect x="16" y="9"  width="6" height="4" rx="1" fill="#0c0c10"/>
    </symbol>
    <symbol id="ico-clock" viewBox="0 0 24 24" fill="none" stroke="currentColor" stroke-width="2" stroke-linecap="round" stroke-linejoin="round">
      <circle cx="12" cy="12" r="9"/>
      <path d="M12 7 V12 L16 14"/>
    </symbol>
    <symbol id="ico-moon" viewBox="0 0 24 24" fill="none" stroke="currentColor" stroke-width="2" stroke-linecap="round" stroke-linejoin="round">
      <path d="M20 14 A8 8 0 1 1 10 4 a7 7 0 0 0 10 10 z"/>
    </symbol>
    <symbol id="ico-coffee" viewBox="0 0 24 24" fill="none" stroke="currentColor" stroke-width="2" stroke-linecap="round" stroke-linejoin="round">
      <path d="M4 10 H18 V16 A4 4 0 0 1 14 20 H8 A4 4 0 0 1 4 16 Z"/>
      <path d="M18 12 H20 A2 2 0 0 1 22 14 V15 A2 2 0 0 1 20 17 H18"/>
      <path d="M8 3 Q8 5 9 6 M12 3 Q12 5 13 6 M16 3 Q16 5 17 6" opacity="0.6"/>
    </symbol>
    <symbol id="ico-eye" viewBox="0 0 24 24" fill="none" stroke="currentColor" stroke-width="2" stroke-linecap="round" stroke-linejoin="round">
      <path d="M2 12 Q7 5 12 5 Q17 5 22 12 Q17 19 12 19 Q7 19 2 12 z"/>
      <circle cx="12" cy="12" r="3"/>
    </symbol>
    <symbol id="ico-eye-off" viewBox="0 0 24 24" fill="none" stroke="currentColor" stroke-width="2" stroke-linecap="round" stroke-linejoin="round">
      <path d="M2 12 Q7 5 12 5 Q17 5 22 12 Q17 19 12 19 Q7 19 2 12 z"/>
      <circle cx="12" cy="12" r="3"/>
      <path d="M3 3 L21 21"/>
    </symbol>
    <symbol id="ico-lock" viewBox="0 0 24 24" fill="none" stroke="currentColor" stroke-width="2" stroke-linecap="round" stroke-linejoin="round">
      <rect x="4" y="10" width="16" height="11" rx="2"/>
      <path d="M8 10 V7 A4 4 0 0 1 16 7 V10"/>
    </symbol>
    <symbol id="ico-edit" viewBox="0 0 24 24" fill="none" stroke="currentColor" stroke-width="2" stroke-linecap="round" stroke-linejoin="round">
      <path d="M17 3 A2.1 2.1 0 0 1 20 6 L8 18 L4 19 L5 15 Z"/>
    </symbol>
    <symbol id="ico-trash" viewBox="0 0 24 24" fill="none" stroke="currentColor" stroke-width="2" stroke-linecap="round" stroke-linejoin="round">
      <path d="M4 7 H20 M10 11 V17 M14 11 V17 M5 7 L6 20 A2 2 0 0 0 8 22 H16 A2 2 0 0 0 18 20 L19 7 M9 7 V4 A1 1 0 0 1 10 3 H14 A1 1 0 0 1 15 4 V7"/>
    </symbol>
    <symbol id="ico-chevron-right" viewBox="0 0 24 24" fill="none" stroke="currentColor" stroke-width="2.5" stroke-linecap="round" stroke-linejoin="round">
      <path d="M9 6 L15 12 L9 18"/>
    </symbol>
    <symbol id="ico-scan" viewBox="0 0 24 24" fill="none" stroke="currentColor" stroke-width="2" stroke-linecap="round" stroke-linejoin="round">
      <circle cx="12" cy="12" r="9"/>
      <circle cx="12" cy="12" r="5" opacity="0.5"/>
      <circle cx="12" cy="12" r="1.5" fill="currentColor" stroke="none"/>
    </symbol>
    <symbol id="ico-headphones" viewBox="0 0 24 24" fill="none" stroke="currentColor" stroke-width="2" stroke-linecap="round" stroke-linejoin="round">
      <path d="M4 14 A8 8 0 0 1 20 14"/>
      <rect x="3"  y="14" width="5" height="7" rx="1.5"/>
      <rect x="16" y="14" width="5" height="7" rx="1.5"/>
    </symbol>
    <symbol id="ico-rocket" viewBox="0 0 24 24" fill="none" stroke="currentColor" stroke-width="2" stroke-linecap="round" stroke-linejoin="round">
      <path d="M12 2 C16 6 17 11 17 15 L12 18 L7 15 C7 11 8 6 12 2 z"/>
      <circle cx="12" cy="10" r="1.8"/>
      <path d="M9 18 L6 22 M15 18 L18 22"/>
    </symbol>
    <symbol id="ico-chat" viewBox="0 0 24 24" fill="none" stroke="currentColor" stroke-width="2" stroke-linecap="round" stroke-linejoin="round">
      <path d="M4 5 H20 A2 2 0 0 1 22 7 V15 A2 2 0 0 1 20 17 H13 L8 21 V17 H4 A2 2 0 0 1 2 15 V7 A2 2 0 0 1 4 5 Z"/>
    </symbol>
    <symbol id="ico-volume" viewBox="0 0 24 24" fill="none" stroke="currentColor" stroke-width="2" stroke-linecap="round" stroke-linejoin="round">
      <path d="M3 10 V14 H7 L12 18 V6 L7 10 Z"/>
      <path d="M16 9 Q18 12 16 15" opacity="0.7"/>
      <path d="M19 6 Q22 12 19 18" opacity="0.5"/>
    </symbol>
    <symbol id="ico-paperclip" viewBox="0 0 24 24" fill="none" stroke="currentColor" stroke-width="2" stroke-linecap="round" stroke-linejoin="round">
      <path d="M21.44 11.05l-9.19 9.19a6 6 0 0 1-8.49-8.49l9.19-9.19a4 4 0 0 1 5.66 5.66l-9.2 9.19a2 2 0 0 1-2.83-2.83l8.49-8.48"/>
    </symbol>
    <symbol id="ico-star" viewBox="0 0 24 24" fill="currentColor" stroke="currentColor" stroke-width="1.5" stroke-linecap="round" stroke-linejoin="round">
      <path d="M12 2 L15.09 8.26 L22 9.27 L17 14.14 L18.18 21.02 L12 17.77 L5.82 21.02 L7 14.14 L2 9.27 L8.91 8.26 Z"/>
    </symbol>
    <symbol id="ico-star-outline" viewBox="0 0 24 24" fill="none" stroke="currentColor" stroke-width="2" stroke-linecap="round" stroke-linejoin="round">
      <path d="M12 2 L15.09 8.26 L22 9.27 L17 14.14 L18.18 21.02 L12 17.77 L5.82 21.02 L7 14.14 L2 9.27 L8.91 8.26 Z"/>
    </symbol>
    <symbol id="ico-search" viewBox="0 0 24 24" fill="none" stroke="currentColor" stroke-width="2" stroke-linecap="round" stroke-linejoin="round">
      <circle cx="11" cy="11" r="7"/><path d="M20 20 L16 16"/>
    </symbol>
    <symbol id="ico-search-off" viewBox="0 0 24 24" fill="none" stroke="currentColor" stroke-width="2" stroke-linecap="round" stroke-linejoin="round">
      <circle cx="11" cy="11" r="7"/><path d="M20 20 L16 16"/><path d="M4 4 L20 20"/>
    </symbol>
    <symbol id="ico-chevron" viewBox="0 0 24 24" fill="none" stroke="currentColor" stroke-width="2.5" stroke-linecap="round" stroke-linejoin="round">
      <path d="M6 9 L12 15 L18 9"/>
    </symbol>
    <symbol id="ico-filter" viewBox="0 0 24 24" fill="none" stroke="currentColor" stroke-width="2" stroke-linecap="round" stroke-linejoin="round">
      <path d="M3 4H21L14 12V20L10 18V12L3 4Z"/>
    </symbol>
    <symbol id="ico-filter-off" viewBox="0 0 24 24" fill="none" stroke="currentColor" stroke-width="2" stroke-linecap="round" stroke-linejoin="round">
      <path d="M3 4H21L14 12V20L10 18V12L3 4Z"/>
      <path d="M3 3L21 21"/>
    </symbol>
    <symbol id="ico-chevrons-down" viewBox="0 0 24 24" fill="none" stroke="currentColor" stroke-width="2.5" stroke-linecap="round" stroke-linejoin="round">
      <path d="M7 6 L12 11 L17 6"/><path d="M7 13 L12 18 L17 13"/>
    </symbol>
    <symbol id="ico-chevrons-up" viewBox="0 0 24 24" fill="none" stroke="currentColor" stroke-width="2.5" stroke-linecap="round" stroke-linejoin="round">
      <path d="M7 18 L12 13 L17 18"/><path d="M7 11 L12 6 L17 11"/>
    </symbol>
  </defs>
</svg>
